<svg xmlns="http://www.w3.org/2000/svg" viewBox="0 0 459.42 459.42"><defs><style>.ea96f5b0-26db-417a-b4f5-9a6fbaf188ec{fill:#e3f6db;}</style></defs><g id="aec15851-5925-4987-be83-b7d3611db001" data-name="Capa 2"><g id="aa881b5f-873f-4fd9-acea-d6f33692bb37" data-name="Capa 2"><path class="ea96f5b0-26db-417a-b4f5-9a6fbaf188ec" d="M64.32,0A64.3,64.3,0,0,0,43.64,125.19,97,97,0,0,1,133.81,64a98,98,0,0,1,18.37,1.72C183,71.93,208.5,93.18,221.1,120.89A40.53,40.53,0,0,0,198.41,46.8a31.74,31.74,0,0,0-6.31.58C191.49,20.64,170.2,0,143.28,0a47.37,47.37,0,0,0-35.89,16.37A64.4,64.4,0,0,0,64.32,0Zm66.9,82.41A78.67,78.67,0,0,0,55.13,160.8c0,40.45-9.62,65.25-13.78,74.08a9.13,9.13,0,0,0,2.58,11.2c1.58,1.18,36,27,89.3,27,3.45,0,7-.36,10.63-.58,4.95,7.29,12.49,12.35,21.53,12.35,6.71,0,13.82-1.76,19.24-6.6s8.33-12.57,8.33-21c0-12-7.43-20.68-13.79-27.28-2.22-2.34-4.09-4.35-6-6.32,1.62-.86,3.49-1.87,3.74-2a86.13,86.13,0,0,0,12.06-9.47l51.68,14.64-23.83-36.75,48.81-24.7L210.76,151.9c-3.88-33.13-28.86-61.42-62-68.06A83.12,83.12,0,0,0,131.22,82.41Zm20.39,55.42a13.78,13.78,0,1,1-13.78,13.78A13.78,13.78,0,0,1,151.61,137.83Zm215.93,45.94v64.32H303.22v64.32H238.9v64.32H174.58v82.69h36.75V413.48h64.32V349.16H340V284.84h64.32V220.52h55.13V183.77ZM160.22,236.31c2.08,1.94,3.81,4.6,5.75,6.61,5.38,5.56,8.61,10.69,8.61,14.36,0,4.45-1,6.06-2.3,7.17s-3.51,2-6.89,2c-4.52,0-9.19-4-9.19-12.92C156.2,247,158.18,241.16,160.22,236.31Z"/></g></g></svg>