<svg xmlns="http://www.w3.org/2000/svg" viewBox="0 0 403.72 440.21"><defs><style>.b3590a4a-222c-4ad3-90f2-5418fd2f4f16{fill:#e3f6db;}</style></defs><g id="e3bc2970-b187-452b-893b-67ab5c5045d5" data-name="Capa 2"><g id="bd1be268-138c-4e2c-a514-2d245056b2a2" data-name="Capa 2"><path class="b3590a4a-222c-4ad3-90f2-5418fd2f4f16" d="M325,0c-12.2,0-19.88,6.78-24.12,13.5-5.13-.58-11.05.1-15.5,2.58-14.22,7.82-20.28,24-14.07,37.61a28.17,28.17,0,0,0,8.32,10.63C266.28,79.14,259,100.25,252.11,120c-12.71,36.69-23.76,68.34-64,68.34C91.27,188.36,38,143.28,29,131.22c-5.35-7.21-9.94-12.63-16.65-12.63C4.13,118.59,0,125.16,0,138.4c0,20.71,17.26,49.6,37,66.9-8.94,2.41-17.41,5.93-22.4,10.92-4.3,4.3-6.21,8.79-5.16,13.2,1.5,6.32,7.39,8.22,10.33,9.19a76.73,76.73,0,0,1,8.33,3.45,25.26,25.26,0,0,0-6.89,6.31c-2.66,3.41-3.48,6.86-2.59,10.34,1.44,5.49,6.54,7.68,9.48,8.9C33.85,270,38.69,274.86,42.5,282c6.21,11.49,26.81,39.52,58.86,63.46,46.34,10.41,83.2,5.63,109.4-14.36,27.39-20.85,37-54.81,37-77.53a9.19,9.19,0,0,1,18.38,0c0,28.21-11.56,67.23-44.22,92.17-20.57,15.65-46.2,23.55-76.38,23.55-1.4,0-2.87-.25-4.31-.29,18.16,8.22,38.44,14.29,60.59,15.8v22.1A59.93,59.93,0,0,0,176,425.54a9.17,9.17,0,0,0,7.46,14.64,9.16,9.16,0,0,0,7.47-3.73c.1-.14,11-14.64,29.28-14.64s28.86,14.1,29.29,14.64a9.25,9.25,0,0,0,14.93-10.91c-.64-.9-16.36-22.11-44.22-22.11V384.77c52.3-2.73,147-35.43,147-127.78,0-24.66-4.38-41.56-8.33-56.57-3.05-11.7-5.74-21.82-5.74-33.59,0-16.12,7.57-26.28,11.2-30.15.57,0,1.43,0,2.3,0,6.67,0,16,1.72,22.11,6.89a9.16,9.16,0,0,0,9.76,1.43,9,9,0,0,0,5.17-8.32c0-30.33-12.17-40.42-18.38-44.8A45.83,45.83,0,0,0,371.27,62.6a28.26,28.26,0,0,0,8-28.43,27.56,27.56,0,0,0-13.5-16.37c-4.66-2.51-10.87-3.19-16.36-2.58C345.14,7.65,337.49,0,325,0Zm8,81.83A13.79,13.79,0,1,1,319.3,95.62,13.79,13.79,0,0,1,333.08,81.83Z"/></g></g></svg>