<svg xmlns="http://www.w3.org/2000/svg" viewBox="0 0 422.67 441.04"><defs><style>.a0c7c903-994e-495f-831f-ca6479f8318c{fill:#e3f6db;}</style></defs><g id="af184c4f-93c4-4b80-8c71-8d6782453a2f" data-name="Capa 2"><g id="a2541ff1-65d3-4c59-8298-e3564fd67218" data-name="Capa 2"><path class="a0c7c903-994e-495f-831f-ca6479f8318c" d="M211.33,0A18.32,18.32,0,0,0,194.9,10.28a27.68,27.68,0,0,0-20.32,26.47v22.4C158.44,70.83,147,88.86,147,110.26a64.32,64.32,0,1,0,128.64,0c0-21.4-11.42-39.43-27.56-51.11V36.75a27.68,27.68,0,0,0-20.32-26.47A18.32,18.32,0,0,0,211.33,0Zm-9.18,27.57h18.37a9,9,0,0,1,9.19,9.18v31.1l4.58,2.66a46,46,0,1,1-50.41,3h27.45V55.13H193V36.75A9,9,0,0,1,202.15,27.57ZM128.64,147a9.19,9.19,0,1,0,9.19,9.19A9.19,9.19,0,0,0,128.64,147ZM294,147a9.19,9.19,0,1,0,9.19,9.19A9.19,9.19,0,0,0,294,147Zm-193,18.38a9.19,9.19,0,1,0,9.19,9.19A9.2,9.2,0,0,0,101.07,165.39Zm220.52,0a9.19,9.19,0,1,0,9.19,9.19A9.19,9.19,0,0,0,321.59,165.39Zm-156.2,18.38a9.19,9.19,0,1,0,9.19,9.19A9.19,9.19,0,0,0,165.39,183.77Zm91.89,0a9.19,9.19,0,1,0,9.18,9.19A9.18,9.18,0,0,0,257.28,183.77Zm-45.95,18.38a9.19,9.19,0,1,0,9.19,9.18A9.18,9.18,0,0,0,211.33,202.15ZM147,211.33a9.19,9.19,0,1,0,9.19,9.19A9.19,9.19,0,0,0,147,211.33Zm128.64,0a9.19,9.19,0,1,0,9.19,9.19A9.2,9.2,0,0,0,275.65,211.33ZM211.33,238.9a9.19,9.19,0,1,0,9.19,9.19A9.18,9.18,0,0,0,211.33,238.9Zm-147,36.75C27.16,275.65,0,342.12,0,376.73a64.32,64.32,0,0,0,128.64,0C128.64,342.12,101.48,275.65,64.32,275.65Zm147,0c-37.15,0-64.32,66.47-64.32,101.08a64.32,64.32,0,0,0,128.64,0C275.65,342.12,248.49,275.65,211.33,275.65Zm147,0c-37.16,0-64.32,66.47-64.32,101.08a64.32,64.32,0,0,0,128.64,0C422.67,342.12,395.51,275.65,358.35,275.65Z"/></g></g></svg>