<svg xmlns="http://www.w3.org/2000/svg" viewBox="0 0 404.29 422.67"><defs><style>.fa33dde9-4485-4fa3-869b-e208c5911850{fill:#e3f6db;}</style></defs><g id="b78211e6-ecea-4135-bfd6-320b15253e2b" data-name="Capa 2"><g id="f9f2cda1-65c1-4af4-8052-bb6250934f9b" data-name="Capa 2"><path class="fa33dde9-4485-4fa3-869b-e208c5911850" d="M202.15,0c-49.73,0-91.24,36-91.84,81.71L88.58,241c-24.1,5.3-44.59,12.15-59.85,20.68C12.09,271,0,283.05,0,298.62A29.45,29.45,0,0,0,3.19,311.8c8.2,27.42,19.69,54.38,45.7,74.65,29.15,22.73,75,36.22,151.25,36.22s123-13.48,153.13-36.11C380.1,366.4,392.57,339.48,401,312a29.49,29.49,0,0,0,3.28-13.34c0-15.57-12.09-27.61-28.73-36.91-15.26-8.53-35.75-15.38-59.85-20.68L294,81.71C293.38,36,251.87,0,202.15,0Zm0,18.38c33.32,0,60.75,19.13,70.07,44.93-3-.93-6.12-1.8-9.61-2.58-15.94-3.54-37.08-5.6-60.46-5.6s-44.53,2.06-60.47,5.6c-3.49.78-6.62,1.65-9.61,2.58C141.39,37.51,168.82,18.38,202.15,18.38Zm0,55.13c22.28,0,42.47,2,56.47,5.17a64.85,64.85,0,0,1,12.4,4,66.3,66.3,0,0,1-12.4,4c-14,3.11-34.19,5.16-56.47,5.16s-42.48-2-56.48-5.16a66.3,66.3,0,0,1-12.4-4,64.85,64.85,0,0,1,12.4-4C159.67,75.56,179.86,73.51,202.15,73.51Zm-116.22,187-2.57,18.85L19.92,293.46c2.37-4.66,7.8-10.12,17.78-15.71C49.28,271.28,66,265.35,85.93,260.52Zm232.43,0c19.95,4.83,36.65,10.76,48.23,17.23,10,5.59,15.41,11.05,17.78,15.71l-63.44-14.09Zm-229,36.34a41.18,41.18,0,0,0,6.8,4.64c6.54,3.58,15.11,6.83,25.55,9.78,3.83,1.07,8.15,2,12.44,3l-21,28a340.77,340.77,0,0,1-44.7-10.19c-16.83-5.21-30.18-11.42-38.66-17.63A49.76,49.76,0,0,1,25.68,311Zm225.61,0L378.61,311a48.14,48.14,0,0,1-4.09,3.44c-8.48,6.21-21.83,12.42-38.66,17.63-15.09,4.67-33.08,8.53-53,11.43l-20.67-27.57c7.3-1.4,14.23-2.93,20.37-4.66,10.44-2.95,19-6.2,25.55-9.78A40.76,40.76,0,0,0,315,296.86ZM154.3,318a326,326,0,0,0,47.85,3.58,328.83,328.83,0,0,0,39.48-2.47l20.26,27a588.88,588.88,0,0,1-59.74,3,579,579,0,0,1-68.22-4Z"/></g></g></svg>