<svg xmlns="http://www.w3.org/2000/svg" viewBox="0 0 441.05 422.67"><defs><style>.a32104d2-0a0a-4efa-bda1-8203b9738711{fill:#e3f6db;}</style></defs><g id="e9633fb6-0398-4be8-ad0e-bf6e38211e43" data-name="Capa 2"><g id="f08f6920-a652-48f8-8d08-8e30237a8040" data-name="Capa 2"><path class="a32104d2-0a0a-4efa-bda1-8203b9738711" d="M220.53,0a9.39,9.39,0,0,0-5.69,1.94L3.5,167.33a9.22,9.22,0,0,0,11.38,14.5l12.69-9.91V413.48a9.22,9.22,0,0,0,9.19,9.19H404.29a9.22,9.22,0,0,0,9.19-9.19V171.92l12.69,9.91a9.45,9.45,0,0,0,5.69,1.94,9.19,9.19,0,0,0,5.69-16.44L226.21,1.94A9.38,9.38,0,0,0,220.53,0ZM170,119.45a50.28,50.28,0,0,1,37.85,17.08,40.48,40.48,0,0,1,5.06-6.33,36.83,36.83,0,0,1,52,0,36.19,36.19,0,0,1,10.66,26.36,27.33,27.33,0,0,1,4.68-.36,32.15,32.15,0,0,1,14.34,60.93A78.07,78.07,0,0,0,155,218.22a50.52,50.52,0,0,1,15-98.77ZM224.94,193a64,64,0,0,1,11.67,1.09,59.56,59.56,0,0,1,33.16,19.49A61.26,61.26,0,0,1,284.67,249l46.12,10.21-39.14,17.73,19.2,26.28-43.09-10.84a64.89,64.89,0,0,1-9.48,7.25s-3.93,2.21-9,4.41c.65.65,1.37,1.28,1.92,1.83,6.44,6.25,15.26,14.8,15.26,27.3,0,17.37-11.58,25.18-23,25.18-10.29,0-18.47-7.62-21.59-18.65-3.22.28-6.62.27-10.57.27-25.55,0-47.51-9.55-57.9-23.33,5.61-14,10.75-35.47,10.75-63.4C164.19,220.25,191.49,193,224.94,193Zm9.37,36.75a13.79,13.79,0,0,0,0,27.57h0a13.78,13.78,0,0,0,13.78-13.79h0A13.78,13.78,0,0,0,234.31,229.71Zm5.6,90.79a49.08,49.08,0,0,0-1,9.46c0,6.52,3,10,4.6,10,1.83,0,4.59,0,4.59-6.8C248.09,328.94,244.13,324.73,239.91,320.5Z"/></g></g></svg>