<svg xmlns="http://www.w3.org/2000/svg" viewBox="0 0 456.99 440.3"><defs><style>.abe57ebf-4856-4ea4-98be-74967aa6b80d{fill:#e3f6db;}</style></defs><g id="ad1a7f89-347b-4e95-886a-000530ef4893" data-name="Capa 2"><g id="a93c758f-6c95-4936-aa2d-f9cb03dc46c9" data-name="Capa 2"><path class="abe57ebf-4856-4ea4-98be-74967aa6b80d" d="M284.88,0a9.1,9.1,0,0,0-7.2,4.81c-16.35,30.23-33.09,31.43-60,31.16a6.36,6.36,0,0,1-.65-1c-5.88-10.29-12.58-21.87-33.25-21.87S156.39,24.71,150.51,35c-.18.37-.46.73-.64,1.1C123.5,36.28,107,34.72,90.79,4.85A9.05,9.05,0,0,0,80.49.55a9.56,9.56,0,0,0-7,9.18c-.09,31.7,10,54.48,28.48,65.42a52.73,52.73,0,0,0-7.81,8.54C85.64,79.28,70.93,73,55.13,72.76c-23.25-.27-42.72,4.5-50.63,12.31a13.68,13.68,0,0,0-4.5,10c0,11.85,14.15,41.81,47.59,42h.29c10.84,0,20.21-2.94,28.48-6.71-1,5.7-1.94,11.68-2.76,17.84a6,6,0,0,0-.09,1.27c0,44.2,19.1,73.79,31.69,93.36,5.79,9.09,11.3,17.55,11.4,21.5-.19.55-.46,1.09-.74,1.74-2.11,5.14-6.07,14.52-6.07,38,0,22.06,22.89,44.29,74,44.29,4.41,0,8.64-.18,12.78-.55.64-2.94,1.47-5.79,2.29-8.63a125.42,125.42,0,0,1,9-22.33v-.29l2.3-4.12a148.45,148.45,0,0,1,10.3-16.08,4.75,4.75,0,0,0-.46-.36l-.36-.29-.38-.27c-1.84-1.56-3.76-3.12-5.51-4.77l-.36-.29-.38-.36-.44-.47v-.09a63.93,63.93,0,0,1-5.15-5.06,25.87,25.87,0,0,1-2.21-2.47l-.47-.45-.18-.38-.27-.27-.91-1.11c-.92-1.19-1.94-2.39-2.59-3.21-1.1-1.56-2.2-3.12-3.3-4.78-.55-.91-1.1-1.75-1.74-2.76L192,261.77c-.46-1-.92-2.12-1.29-2.94-.64-1.84-1.28-3.77-1.83-6-8.27-35.83,5.88-70.92,16.81-84.62a33.58,33.58,0,0,1,2.3-2.67l.27-.36.47-.37c7.72-7.72,15.89-9.37,21.5-9.37,13.32,0,21.21,8.09,25.71,13.69,2.12-11.12,1.38-29.6-.73-40.16-2.12-10.2-5.41-16.35-10.55-19.65-17-10.66-42.1-18.2-60.93-18.2s-43.93,7.54-60.93,18.2c-5.14,3.3-8.44,9.56-10.55,19.75-2.76,13.7-3.13,40.34,1.92,47.6,3.77,5.42,10.2,8.81,16.9,12.49,6.53,3.49,13.88,7.35,16.64,12.31-.28,30.6-6.34,45.76-13.87,56.6-2-7.81-7.16-15.71-13.23-25.18-12-18.74-28.58-44.38-28.77-82.78,5.52-38.41,11.76-57.88,33-68.45a8.6,8.6,0,0,0,3.3-1.56c23.89-11,32.16-25.45,38.23-35.93,5.51-9.46,7.35-12.69,17.37-12.69s11.86,3.23,17.37,12.69c6.25,10.66,14.69,25.35,39.41,36.47,23,10.29,29.41,29.77,35.1,69.47a127.85,127.85,0,0,1-4.77,34.09c.09,0,.09.09.18.09.83.46,1.65.92,2.47,1.48a38,38,0,0,1,5.33,3.39l.38.18c.92.64,1.92,1.29,2.84,2,.64.45,1.29.92,1.94,1.47l.35.27,1,.73.64.65c.28.18.46.46.74.64A144.35,144.35,0,0,0,294,149.48a6,6,0,0,0-.09-1.27c-.83-6.16-1.75-12.14-2.76-17.84,8.27,3.77,17.63,6.71,28.48,6.71h.28c33.45-.18,47.6-30.14,47.6-42a13.66,13.66,0,0,0-4.51-10c-7.9-7.81-27.47-12.58-50.62-12.31-15.72.19-30.42,6.43-39,10.93a48.56,48.56,0,0,0-7.54-8.16c18.74-10.85,29.13-33.92,29-66.35a9.21,9.21,0,0,0-7-8.92A9.49,9.49,0,0,0,284.88,0ZM230.27,173.83a12.17,12.17,0,0,0-8.55,3.95c-.73.83-1.3,1.48-1.66,1.94-7.08,8.91-20.21,38.59-13.23,69a28.39,28.39,0,0,0,1.11,3.48,24.35,24.35,0,0,0,1,2.3,22.14,22.14,0,0,0,1.47,3,.7.7,0,0,0,.18.38,36.58,36.58,0,0,0,2.21,3.68c.82,1.29,1.64,2.57,2.56,3.77,1,1.38,2.11,2.66,3.21,4,.65.73,1.3,1.56,2,2.29,1.47,1.57,2.94,3.13,4.51,4.51l.82.82c1.66,1.47,3.41,3,5.15,4.42,1.56,1.19,3.12,2.29,4.78,3.39.36.18.63.46,1,.65.83.46,1.76,1,2.59,1.47a36.65,36.65,0,0,0,4.21,2.21,15.42,15.42,0,0,0,1.76.82,6.05,6.05,0,0,0,1.56.54l.83.29c-1.1,1.38-2.3,2.94-3.59,4.59-2.48,3.13-5.25,6.62-8.09,10.57a145.11,145.11,0,0,0-9.93,15.44v.08a117.07,117.07,0,0,0-14.88,57.79,38.49,38.49,0,0,0,.92,8.45,23,23,0,0,0,1.2,4.33,17.06,17.06,0,0,0,1,2.76,14.22,14.22,0,0,0,1.11,2.48,15.6,15.6,0,0,0,1.92,3.68,7.79,7.79,0,0,0,1.2,2,29.07,29.07,0,0,0,2.39,3.41,35.41,35.41,0,0,0,2.94,3.48,12.51,12.51,0,0,0,1.83,1.94,36.39,36.39,0,0,0,3.3,3.12l.29.27c.74.64,1.56,1.29,2.39,1.94s1.56,1.18,2.47,1.92h.09c.83.55,1.76,1.2,2.68,1.85s1.91,1.19,2.92,1.74c1.84,1.1,3.78,2.11,5.8,3.12,9.65,4.78,21.69,8.54,36.39,10.75a70.64,70.64,0,0,1-7.62-10.93,57.81,57.81,0,0,1-4.51-10.3v-.09a62,62,0,0,1-3.59-20.3v-.55a64.32,64.32,0,0,1,128.64,0v.27a62.81,62.81,0,0,1-3.39,20.4v.09a57.79,57.79,0,0,1-4.59,10.3,67.58,67.58,0,0,1-7.83,11.11c5.61-.92,10.76-1.93,15.63-3.21,1.2-.37,2.38-.64,3.57-1a106.79,106.79,0,0,0,19.22-7.73c1.93-1,3.68-2.11,5.42-3.21.1,0,.18-.09.27-.18a53,53,0,0,0,5.15-3.59c1.57-1.2,2.93-2.38,4.31-3.57a2.48,2.48,0,0,0,.47-.38c1.28-1.2,2.38-2.38,3.48-3.57a4.69,4.69,0,0,0,.64-.74c.92-1.1,1.85-2.13,2.68-3.23a5.61,5.61,0,0,0,.64-.91,40.64,40.64,0,0,0,2.39-3.59,21.59,21.59,0,0,0,1.92-3.49,20.47,20.47,0,0,0,1.38-2.94,22,22,0,0,0,.92-2.21,5.17,5.17,0,0,0,.29-.91,23.67,23.67,0,0,0,1.09-3.68,41.48,41.48,0,0,0,1.38-8.72c2-44.47-21.68-72.05-34.45-86.84l-1.3-1.56A59,59,0,0,0,430.65,282c11.4-8.82,21.51-21.6,24.36-32.9,7-30.23-6.15-59.91-13.23-68.82-1.1-1.47-4.59-5.87-10.19-5.87-6.16,0-9.76,4.49-13.16,8.9-3.77,4.87-8.89,11.5-19.09,17.28a79.19,79.19,0,0,0-11,7.45A56.18,56.18,0,0,0,376,221.8a54,54,0,0,0-5.51-3c-.74-.37-1.56-.74-2.39-1.11-1.38-.64-2.85-1.19-4.32-1.74l-1.38-.56c-2.21-.73-4.51-1.37-6.9-2s-5.14-1.1-7.8-1.47c-1.84-.37-3.76-.55-5.69-.74-1.38-.18-2.77-.28-4.24-.37-2.29-.09-4.68-.18-7.07-.18-2.2,0-4.42.09-6.53.18s-4.14.28-6.06.55c-.1-.09-.27,0-.36,0a28.27,28.27,0,0,0-3.86.56A78.29,78.29,0,0,0,303,214.27a31.82,31.82,0,0,0-4.24,1.38c-1.1.37-2.2.72-3.3,1.18-1.29.55-2.57,1.1-3.77,1.65-2,.92-3.95,2-5.88,3.13a48.14,48.14,0,0,0-6.43-8.17q-1.24-1.38-2.76-2.76a22.21,22.21,0,0,0-2.66-2.3l-.55-.56c-.74-.55-1.47-1.19-2.3-1.74a13.35,13.35,0,0,0-1.83-1.29,47,47,0,0,0-4.7-3c-.65-.37-1.28-.82-2-1.19a58.29,58.29,0,0,1-6.34-4,44.46,44.46,0,0,1-3.77-3c-.73-.73-1.47-1.38-2.12-2.11a59.07,59.07,0,0,1-5.79-6.81c-.46-.55-.82-1.19-1.28-1.74C240.1,178.62,236.61,173.83,230.27,173.83ZM330.78,348.41a46,46,0,0,0-45.94,45.95,53.45,53.45,0,0,0,.27,5.42,44.53,44.53,0,0,0,7.09,19.38v.11a45.88,45.88,0,0,0,38.49,21h.36a36.41,36.41,0,0,0,4.42-.27,45.68,45.68,0,0,0,33.9-20.76s0-.11.1-.11a45.94,45.94,0,0,0,7-19.47,51.68,51.68,0,0,0,.27-5.33A46,46,0,0,0,330.78,348.41Zm-18.37,36.76a9.19,9.19,0,1,1-9.19,9.19A9.21,9.21,0,0,1,312.41,385.17Zm36.75,0a9.19,9.19,0,1,1-9.19,9.19A9.22,9.22,0,0,1,349.16,385.17Z"/></g></g></svg>