<svg xmlns="http://www.w3.org/2000/svg" viewBox="0 0 294.03 459.43"><defs><style>.fa4584bd-d10b-4343-b63c-d2727d56acdc{fill:#e3f6db;}</style></defs><g id="ec43160a-c7e3-4e9e-abca-bd545bf0a396" data-name="Capa 2"><g id="a3204b1c-32a3-4979-8fe3-04eced86acce" data-name="Capa 2"><path class="fa4584bd-d10b-4343-b63c-d2727d56acdc" d="M8.31,0A9.24,9.24,0,0,0,0,9.19V27.57C0,59.66,8.22,122,62.17,184.78L40.59,220.47a36.89,36.89,0,0,0,2.3,36.85c.19.26.37.52.58.77l10.82,13-6.73,27.3a82.76,82.76,0,0,0,4.65,47.68l12.11,23.69v25.36c0,36.82,38.81,64.32,73.51,64.32H156.2c34.7,0,73.51-27.5,73.51-64.32V369.75l12.46-24.44A82.66,82.66,0,0,0,246.38,298l-6.64-26.89,10.81-13c.2-.25.4-.51.57-.77a37,37,0,0,0,1.94-37.47l-21.2-35C285.83,122,294,59.66,294,27.57V9.19A9.19,9.19,0,0,0,278.34,2.7c-51.85,51.85-79.82,88-95,112.14a72.88,72.88,0,0,0-13.28-16.92,97.75,97.75,0,0,0-18.61-14.07,9.13,9.13,0,0,0-8.87,0A97.75,97.75,0,0,0,124,97.92a72.88,72.88,0,0,0-13.28,16.92C95.51,90.65,67.54,54.55,15.68,2.7A9.19,9.19,0,0,0,8.31,0ZM147,103.3a47.39,47.39,0,0,1,10.27,7.83c7.25,7,13.59,16.27,13.82,26.15a97.83,97.83,0,0,0-3.86,9.74H126.79a97.83,97.83,0,0,0-3.86-9.74c.23-9.88,6.57-19.16,13.82-26.15A47.66,47.66,0,0,1,147,103.3ZM78.1,248.09a13.79,13.79,0,1,1-13.78,13.79A13.79,13.79,0,0,1,78.1,248.09Zm137.83,0a13.79,13.79,0,1,1-13.78,13.79A13.79,13.79,0,0,1,215.93,248.09ZM147,358.35c25.63,0,51.16,4.46,64.32,7.16v29.6c0,.79-.1,1.55-.16,2.33a19.17,19.17,0,0,0-9-2.33,9.19,9.19,0,0,0-8.49,5.67,9.21,9.21,0,0,0,0,7,9,9,0,0,0,2,3l7.16,7.18c-10.74,13.8-29.84,23.08-46.63,23.08H137.83c-16.79,0-35.89-9.28-46.63-23.08l7.18-7.18,0-.05a9.46,9.46,0,0,0,2-3,9.19,9.19,0,0,0-8.51-12.67,19.14,19.14,0,0,0-9,2.33c-.06-.78-.16-1.54-.16-2.33v-29.6C95.86,362.81,121.39,358.35,147,358.35Z"/></g></g></svg>