<svg xmlns="http://www.w3.org/2000/svg" viewBox="0 0 457.79 385.91"><defs><style>.b1891c6d-1e87-4254-ad7a-bc81fecbee7d{fill:#e3f6db;}</style></defs><g id="a22346e6-84cb-4e7a-9d97-74fa6803ef73" data-name="Capa 2"><g id="bfd2b946-dcbd-47ec-8e4b-130517b62f04" data-name="Capa 2"><path class="b1891c6d-1e87-4254-ad7a-bc81fecbee7d" d="M163.09,0c-22.21,0-39.62,13.93-46.8,36.47a52,52,0,0,0-20.1-4c-18,0-35.21,9.08-44.79,23.83a46.16,46.16,0,0,0-7.18,32.16h-.29C14,88.44,0,115.25,0,133.23,0,152.58,10,168.12,27,176c-10.69,19.2-6.5,34.6-2.58,42.78,8.18,17.08,28.17,29,48.52,29a49.2,49.2,0,0,0,9.77-.86,54.65,54.65,0,0,0,13.49,23.54c10.8,11.35,25.56,17.81,40.2,17.81,12,0,29-4.35,45.66-22.69C194.36,286.24,214.21,294,230.57,294c21.86,0,40.2-12.24,48.24-30.15a46,46,0,0,0,26.7,8.61c19.82,0,37.51-12.34,46.23-30.15-20.49-5.85-36.07-16.29-46.51-31-10.77-15.14-14.86-33.74-12.35-54.55A109.3,109.3,0,0,1,267,129.21a27.27,27.27,0,0,1-3.16-23.83c6.32-18.41,25-29.86,48.81-29.86a92.77,92.77,0,0,1,28.72,4.88,129.55,129.55,0,0,1,20.38-3.16c-10.3-20.49-33-36.18-56.28-36.18a52.14,52.14,0,0,0-14.93,2A48.38,48.38,0,0,0,278,16.94C268.51,7,254.48,1.15,239.19,1.15s-29.08,5.42-37.91,14.36C190.41,5.53,177,0,163.09,0Zm149.6,93.89c-15.9,0-27.56,6.61-31.29,17.52a8.68,8.68,0,0,0,.86,7.75c6.21,9.59,18.48,22.87,31,28.14-5.24,21-3,39.38,6.89,53.41,13.64,19.2,39.84,29,77.81,29h2.3c12.24,0,35,0,45.94-13.78,4.78-6,6.43-13.61,5.17-22.4,8.72-14.21,8.54-33.24-.57-51.68C436.7,113.28,405.76,95,371.84,95a110,110,0,0,0-31.29,4.6A76.44,76.44,0,0,0,312.69,93.89Zm91.6,62.31a9.19,9.19,0,1,1-9.19,9.19A9.18,9.18,0,0,1,404.29,156.2ZM47.09,261.3C50.9,311.76,61.88,358,64.32,367.82c2.15,8.73,5.28,18.09,16.37,18.09h7.17a13.24,13.24,0,0,0,9.48-4c3.52-3.62,5.13-9.29,4.88-16.65-.18-4.7-.86-36-1.15-68.05a78.56,78.56,0,0,1-30.43-31A74.76,74.76,0,0,1,47.09,261.3Zm274.22,27.56a66.49,66.49,0,0,1-15.8,2,58.18,58.18,0,0,1-6.6-.57c-1.47,34.88-3.73,67.73-4,72.07a56.78,56.78,0,0,1-4.31,21,14.85,14.85,0,0,0,8.62,2.58h4.88c14.86,0,15.25-16.58,15.5-26.41C319.84,349,320.73,313.59,321.31,288.86Zm-41.06,4a73,73,0,0,1-49.39,19.53c1.54,23.4,4.27,38.54,6.32,47.95.32,1.47.57,2.8.86,4,.07.21.21.36.28.57.26,1,.36,2,.58,2.87,2.15,8.73,5.56,18.09,16.65,18.09h5.75c9.22,0,14.82-9,15.21-24.4,0-.25.76-11.6,1.73-27.86C278.92,322,279.6,307.7,280.25,292.88Zm-113.71,6.89a72.11,72.11,0,0,1-30.15,6.89,70.32,70.32,0,0,1-18.09-2.58c2.62,18.77,6.57,44.36,10.63,62.6,1.29,5.74,4.52,19.23,17.51,19.23h8.61a11.55,11.55,0,0,0,8.62-3.73c5-5.35,5.38-15.83,4.88-23.26Z"/></g></g></svg>