<svg xmlns="http://www.w3.org/2000/svg" viewBox="0 0 457.7 439.92"><defs><style>.b4cacd40-4b3c-4b95-bf60-9a3a2858ef33{fill:#e3f6db;}</style></defs><g id="a6a66489-8aa5-481d-858e-ecc1be8bbf06" data-name="Capa 2"><g id="b2aaf067-0ed3-4bc8-80b8-c5435737a3ad" data-name="Capa 2"><path class="b4cacd40-4b3c-4b95-bf60-9a3a2858ef33" d="M356.05,0a8.82,8.82,0,0,0-7.18,4.6C332.29,35.27,314.7,43,292,44.82c5.13,7,12.13,13.49,25.55,19.52a100.92,100.92,0,0,1,25.56,16.37c14.86-15.4,23.08-39.7,23-71.5a9.14,9.14,0,0,0-6.89-8.9A10.68,10.68,0,0,0,356.05,0ZM101.65.31A10.25,10.25,0,0,0,98.49.6,9.47,9.47,0,0,0,91.6,9.78c-.11,31.41,7.82,55.6,22.68,70.93a101.82,101.82,0,0,1,25.84-16.37c13.43-6,20.43-12.53,25.56-19.52C143,43,125.41,35.27,108.83,4.62A8.37,8.37,0,0,0,101.65.31Zm127.2,16.08c-24.91,0-32.63,13.57-40.2,26.7-7.18,12.42-15.29,26.46-40.77,37.9-41.6,18.7-50.29,57.47-57.14,106a5.53,5.53,0,0,0,0,1.15c0,55.7,23,91.74,39.91,118,7.93,12.35,14.89,23.15,14.93,29.58a23.91,23.91,0,0,1-1.15,2.58c-2.66,6.32-7.47,18.16-7.47,47.67,0,26.91,28.43,54,91.89,54s91.88-27.07,91.88-54c0-29.51-4.81-41.35-7.46-47.67-.43-1-1-1.94-1.15-2.3,0-6.82,7-17.51,14.93-29.86C344,279.84,367,243.8,367,188.1a6.31,6.31,0,0,0,0-1.15c-6.85-48.49-15.54-87.26-57.14-106-25.48-11.44-33.63-25.48-40.77-37.9C261.48,30,253.76,16.39,228.85,16.39ZM69.49,85.3C43.75,85.3,0,90.76,0,111.43c0,17.45,21.75,51.51,61.45,51.69h.28A84.3,84.3,0,0,0,76.09,162c4.92-27.14,12.38-51.58,28.14-70.64-9.65-3.26-21-5.92-32.73-6Zm316.71,0c-11.66.11-23.08,2.77-32.73,6,15.79,19.06,23.22,43.5,28.14,70.64A84.1,84.1,0,0,0,396,163.12h.29c39.7-.18,61.45-34.24,61.45-51.69,0-20.67-43.75-26.13-69.49-26.13ZM228.85,134.4c20.17,0,48.09,8.19,66.33,19.53,6.46,5.42,8.22,45.94,4.88,55.7-2.3,2.66-8.58,5.75-14.07,8.62-11.7,6.13-26.17,13.82-31.59,28.14a10.3,10.3,0,0,0-.57,3.44c0,56.28,12.17,68.3,28.14,78.39,5.6,3.55,9.69,6.25,12.92,13.78.4,1.12,1,2.09,1.44,3.16,2.26,5.39,5.88,14.79,6,39.34-6.61-2.51-19.78-5.71-31.88,1.44-13.74,8.07-14.07,22.43-14.07,33a148.54,148.54,0,0,1-55.13,0c0-10-.07-24.81-14.07-33-12.13-7.11-25.26-3.92-31.87-1.44.15-24.55,3.77-33.67,6-39.05.43-1,1-2.37,1.44-3.45,3.26-7.64,7.28-10.19,12.92-13.78,16-10.09,28.14-22.07,28.14-78.39a10.07,10.07,0,0,0-.58-3.44c-5.42-14.36-20.17-22-31.87-28.14-5.49-2.87-11.48-6-13.78-8.62-3.34-9.76-1.76-50,4.59-55.41C180.57,142.8,208.68,134.4,228.85,134.4ZM168.84,400a14.3,14.3,0,0,1,8.9,1.72c3.7,2.19,4.92,6,5.17,12.63-9-3.41-16.08-7.75-20.68-12.63A27,27,0,0,1,168.84,400Zm116.86,0a24.62,24.62,0,0,1,9.77,1.43c-4.6,5-11.49,9.44-20.68,12.92.25-6.64,1.19-10.44,4.88-12.63A13.67,13.67,0,0,1,285.7,400Z"/></g></g></svg>