<svg xmlns="http://www.w3.org/2000/svg" viewBox="0 0 441.04 441.04"><defs><style>.fcd5fbfa-8566-4a7e-ad74-10e76ed53186{fill:#e3f6db;}</style></defs><g id="a92419af-979a-47da-8afd-d2c9fc4b553d" data-name="Capa 2"><g id="a1e34105-7ca8-4822-b500-cfa97f9bc075" data-name="Capa 2"><path class="fcd5fbfa-8566-4a7e-ad74-10e76ed53186" d="M220.52,0C202,0,186.89,10.27,177,24.26c-6.53-2.83-13.1-5.88-20.75-5.88-20.63,0-38.15,11.81-47.55,28.71-2.52-.43-4.81-1.15-7.58-1.15a55.28,55.28,0,0,0-55.13,55.13c0,1.4.36,2.62.47,4C25,112.59,9.19,132.26,9.19,156.2c0,9.84,3.23,18.63,7.75,26.56C7.11,192.67,0,205.45,0,220.52,0,237.61,8.76,251.93,21,262c-1.18,4.42-2.58,8.76-2.58,13.64,0,23.94,15.75,43.61,37.22,51.15-.11,1.36-.47,2.58-.47,4a55.28,55.28,0,0,0,55.13,55.13h.14c9.7,15.9,25.88,27.57,45.8,27.57,5.67,0,10.48-2.19,15.54-3.84C180.68,428,198.81,441,220.52,441s39.84-13.06,48.78-31.4c5.06,1.65,9.87,3.84,15.54,3.84,19.92,0,36.11-11.67,45.8-27.57h.14a55.28,55.28,0,0,0,55.13-55.13c0-1.4-.36-2.62-.46-4,21.46-7.54,37.22-27.21,37.22-51.15,0-4.88-1.4-9.22-2.59-13.64,12.21-10.08,21-24.4,21-41.49,0-15.07-7.1-27.85-16.94-37.76,4.53-7.93,7.76-16.72,7.76-26.56,0-20.63-11.81-38.15-28.72-47.55.43-2.52,1.15-4.81,1.15-7.58a55.28,55.28,0,0,0-55.13-55.13c-2.76,0-5.06.72-7.57,1.15-9.41-16.9-26.92-28.71-47.56-28.71-10.12,0-19.06,3.51-27.14,8.25C257.2,10.88,240.33,0,220.52,0Zm0,18.38a36.49,36.49,0,0,1,34.35,24.19l4.7,12.7,10.09-9a36.37,36.37,0,0,1,58.54,14.1l3,7.79,8-2.22a36.08,36.08,0,0,1,46.66,35.17,36.87,36.87,0,0,1-1.58,9.91l-2.19,8,7.76,3a36.32,36.32,0,0,1,16,56.21l-5.57,7.39,7.4,5.5a36.46,36.46,0,0,1-2.3,60.4l-6.35,4,2.65,7a36.05,36.05,0,0,1,2.55,13.06A36.54,36.54,0,0,1,374,311.72l-9.47,1.69,2.08,9.37a36.14,36.14,0,0,1,1,8,36.65,36.65,0,0,1-36.76,36.76,21.6,21.6,0,0,0-3-.33l-6.53-.5-2.59,6a36.67,36.67,0,0,1-33.81,22.36,35.9,35.9,0,0,1-16.4-4.05l-9.76-5-3.2,10.45a36.45,36.45,0,0,1-69.92,0l-3.19-10.45-9.76,5a36,36,0,0,1-16.41,4.05,36.68,36.68,0,0,1-33.81-22.36l-2.58-6-6.53.5a22,22,0,0,0-3,.33,36.64,36.64,0,0,1-36.75-36.76,38.6,38.6,0,0,1,.93-8l2.12-9.37-9.48-1.69a36.33,36.33,0,0,1-27.81-49.13l2.72-7-6.38-4a36.46,36.46,0,0,1-2.3-60.4l7.39-5.5-5.6-7.39a36.44,36.44,0,0,1,22.79-58.11l9.48-1.69-2.12-9.36a38.7,38.7,0,0,1-.93-8A36.08,36.08,0,0,1,111,65.9l8,2.22,3-7.79a36.29,36.29,0,0,1,53-18.19l8.43,5.09L188,38.48A36.53,36.53,0,0,1,220.52,18.38ZM156.2,137.83s4.6,27.56-36.75,27.56c-15.58.15-45.94,3.27-45.94,9.19,0,27,21.57,36.32,53.19,36.68,15.65,62,54.56,147.09,93.82,147.09s78.39-85.5,93.93-147.59a49.79,49.79,0,0,0,7.14.57c32.74,0,55.14-9.18,55.14-36.75,0-5.92-30.37-9.19-46-9.19-3.23,0-6.13.11-9.19.18v-.18c-35.6,0-36.75-27.56-36.75-27.56s-27.56,45.94-64.32,0C183.77,183.77,156.2,137.83,156.2,137.83Zm9.23,64.46a9.15,9.15,0,0,0,18.3,0c5.49.47,9.23,2.26,9.23,9a18.38,18.38,0,1,1-36.76,0C156.2,204.55,159.94,202.76,165.43,202.29Zm91.88,0a9.16,9.16,0,0,0,18.31,0c5.49.47,9.22,2.26,9.22,9a18.38,18.38,0,1,1-36.75,0C248.09,204.55,251.82,202.76,257.31,202.29Zm-46,100.93h18.38a9.19,9.19,0,1,1,0,18.37H211.33a9.19,9.19,0,0,1,0-18.37Z"/></g></g></svg>