<svg xmlns="http://www.w3.org/2000/svg" viewBox="0 0 422.67 367.54"><defs><style>.a9a7d672-bfbc-4870-a9d8-db6008177afc{fill:#e3f6db;}</style></defs><g id="b54655c1-4cde-43bd-9d00-9220f54920ed" data-name="Capa 2"><g id="b70429cd-b73b-418a-b8bb-a7b5f736a40c" data-name="Capa 2"><path class="a9a7d672-bfbc-4870-a9d8-db6008177afc" d="M340,114.24c0-25-9.89-33.93-15.43-37.91a39.19,39.19,0,0,0-9-21,26.28,26.28,0,0,0,3.21-4.91c6.11-12.39,2.07-27.44-9.2-34.26a21.91,21.91,0,0,0-12.91-2.85C293,6.6,286.28,0,275.92,0c-10.14,0-16.64,5.8-20.33,11.78a20.7,20.7,0,0,0-12.24,2.87C231.5,21.91,226.6,36.24,231.69,48.7A26.11,26.11,0,0,0,234,52.81c-11.47,12.48-17.73,30.42-23.54,47.11-12.05,34.6-21.55,55.6-51.87,55.6C78.42,155.52,34.4,118.63,27,108.75c-4-5.33-10.07-13.42-18.52-10.58S0,111.34,0,115.75c0,16.77,13.5,39.73,29.42,54.53-6.69,2-12.92,4.92-16.78,8.75-4,4-5.53,8.16-4.51,12.39,1.46,6.12,7.11,7.94,9.58,8.74,1.14.38,2.62,1,4.28,1.7a23.53,23.53,0,0,0-3.84,3.93c-2.52,3.24-3.36,6.6-2.47,10,1.39,5.3,6.16,7.29,8.72,8.36,4.43,1.85,8.21,5.61,11.22,11.17,4.35,8,17.07,25.57,36.75,42.79,35.91,10.68,64.11,8.73,83.79-5.88,20.36-15.14,27.61-41.3,27.61-60.73a9.19,9.19,0,0,1,18.38,0c0,23.91-9.2,56.29-35,75.47-14.64,10.87-32.49,16.32-53.36,16.32-1.76,0-3.61-.15-5.42-.24,19,10.2,41.28,17.54,66.27,18.39,0,.05,0,.11,0,.16v19.18c-14.89,2.39-23.52,9.83-24.61,10.82a9.14,9.14,0,0,0-.55,12.86,9.24,9.24,0,0,0,12.94.73c.31-.29,7.92-6.83,21.41-6.83s21.1,6.54,21.33,6.75a9.19,9.19,0,1,0,12.46-13.51c-1.08-1-9.72-8.43-24.6-10.82V321.59a8.15,8.15,0,0,0-.17-.83C237.9,316,309.44,287.51,309.44,214c0-20.64-3.74-34.84-7-47.37-2.52-9.57-4.7-17.84-4.7-27.39a34.62,34.62,0,0,1,8.61-23.42c4.34-.17,13.07.82,18.56,5.44a9.18,9.18,0,0,0,15.1-7ZM280,92.21A11.41,11.41,0,1,1,291.41,80.8,11.4,11.4,0,0,1,280,92.21Zm105.88,73.18a9.19,9.19,0,1,0,9.19,9.19A9.19,9.19,0,0,0,385.91,165.39Zm18.38,55.13a9.19,9.19,0,1,0,9.19,9.19A9.2,9.2,0,0,0,404.29,220.52Zm-36.75,45.94a9.19,9.19,0,1,0,9.19,9.19A9.19,9.19,0,0,0,367.54,266.46ZM340,330.78a9.19,9.19,0,1,0,9.19,9.19A9.2,9.2,0,0,0,340,330.78Zm73.51,0a9.19,9.19,0,1,0,9.19,9.19A9.19,9.19,0,0,0,413.48,330.78Z"/></g></g></svg>