<svg xmlns="http://www.w3.org/2000/svg" viewBox="0 0 441.07 422.67"><defs><style>.ad829c40-55e5-4c67-8d87-0eb51cae59c7{fill:#e3f6db;}</style></defs><g id="ac03d1b0-5884-430b-aecb-3734bb3e8606" data-name="Capa 2"><g id="f39671f8-35d8-4aa2-bf0c-50017533e974" data-name="Capa 2"><path class="ad829c40-55e5-4c67-8d87-0eb51cae59c7" d="M220.53,0a9.41,9.41,0,0,0-5.7,1.94L3.49,167.33a9.23,9.23,0,0,0,11.42,14.5l12.67-9.91V413.48a9.2,9.2,0,0,0,9.18,9.19H404.3a9.21,9.21,0,0,0,9.19-9.19V171.92l12.67,9.91a9.44,9.44,0,0,0,5.71,1.94,9.2,9.2,0,0,0,7.25-3.48,9.3,9.3,0,0,0-1.55-13L226.24,1.94A9.44,9.44,0,0,0,220.53,0Zm61.59,119.47a6.19,6.19,0,0,1,5.32,2.51,6.51,6.51,0,0,1,1.09,5.76l-9,30.71c8,6.61,27.93,23.18,32.23,27.45,5.91,5.89,7.75,19.29,8.26,24.66,1.86,4.3,12.51,26.93,41.85,55.51,15.94,10,16.12,26,13.78,34-.23,2.76-1.37,9.57-5.56,28.86a6.47,6.47,0,0,1-3.07,4.21c-.76.44-18.88,10.8-39.61,3.95a50.35,50.35,0,0,1-29.13-24.55c-18.49,3.34-48.9.78-65.12-26.74-22.45,20.78-18.7,36.23-14.41,53.89,3.72,15.34,8,32.72-6.2,52.68a6.41,6.41,0,0,1-5.25,2.74c-.25,0-.51,0-.76-.05-134.41-16-133.06-123.64-133-124.71a6.49,6.49,0,0,1,4.61-6,144.22,144.22,0,0,0,14.72-5.42,27.81,27.81,0,0,1-8.44-6.37,6.49,6.49,0,0,1,4.49-10.8c1.53-.06,3.64-1.19,6.57-2.73a99.55,99.55,0,0,1,9.79-4.63,25.65,25.65,0,0,1-9.45-9.1,6.46,6.46,0,0,1,7.55-9.35c2.22.71,2.87.51,7.58-2.3a80.62,80.62,0,0,1,8.57-4.65A33,33,0,0,1,110,198.91,6.48,6.48,0,0,1,115.8,189c5.82.31,9-.6,14-2a107.56,107.56,0,0,1,12.89-2.93,39.84,39.84,0,0,1-10.3-14.73,6.52,6.52,0,0,1,1.34-6.69,6.4,6.4,0,0,1,6.59-1.74c10.29,3.16,15.94,2.49,25.3,1.43,2.92-.33,6.11-.7,9.76-1A42.76,42.76,0,0,1,169,141.56a6.44,6.44,0,0,1,9.26-6.19c.08,0,1.41.66,3.63,1.59,13.86,9.81,35,20.57,61,20.57,1.94,0,3.92,0,5.91-.2a6.43,6.43,0,0,0,6-6.83,6.34,6.34,0,0,0-6.84-6.05,81.26,81.26,0,0,1-12.65-.32C250.12,120.75,280.81,119.51,282.12,119.47Zm2.73,101.05a9.19,9.19,0,1,0,9.19,9.19A9.2,9.2,0,0,0,284.85,220.52Z"/></g></g></svg>