<svg xmlns="http://www.w3.org/2000/svg" viewBox="0 0 449.93 367.54"><defs><style>.bca3f850-978c-40bb-b896-535155bc485a{fill:#e3f6db;}</style></defs><g id="b6c16864-c17d-4787-b530-2a60fde13cf8" data-name="Capa 2"><g id="a7bb4135-fdf6-4f0c-bfc5-456b65cf6756" data-name="Capa 2"><path class="bca3f850-978c-40bb-b896-535155bc485a" d="M54.89,0A24.77,24.77,0,0,0,37.38,7.18c-5,4.92-8,13.1-8.9,23.26-4.17-2.41-8.4-4.67-12.64-8.9A9.24,9.24,0,1,0,2.63,34.46a70.57,70.57,0,0,0,27,16.94c2,13.31,5.49,24.69,9.76,32.16a66,66,0,0,0,6.89,9.76c-12.06,19.45-19,43-19,70.64,0,56.71,6.17,136.17,35.6,193.81a17.55,17.55,0,0,0,15.51,9.77H90.21a11.75,11.75,0,0,0,8.9-4,18.05,18.05,0,0,0,4-12.64c.79-24.37,12.64-48,20.39-62.88,47.84,15.36,101.72,13,121.46,11.49,8.18,25.44,19.27,47.73,25,57.42,5.38,9.12,11.66,10.38,17.23,10.34h10.05a12.48,12.48,0,0,0,9.76-4.59c4.31-5.24,3.16-12.75,2.87-14.07,0-.36-3.12-31.88-.57-55.13,57.25,1.32,121.92-21.15,130.65-40.78,1.86-4.16,3.66-12.42,6-23.26.82-3.84,1.72-7,2.29-8.9,1-2.87,3.63-10.41-1.15-16.65-2.15-2.77-6.35-6.14-14.35-5.46-17.77,1.33-19.31-5.52-22.69-20.67-1.43-6.43-3-13.57-6.6-20.1a65.65,65.65,0,0,0,24.12-13.21c30.69-26.95,23.36-63.35,15.22-79a9.16,9.16,0,0,0-8.62-4.88,9.05,9.05,0,0,0-8,5.74C425.91,67,420.1,80.87,398.6,89c-36,15.29-42.79,50.68-45.37,61.16a9.68,9.68,0,0,1-9.19,7.18,9.18,9.18,0,0,1-9.19-9.19,8.39,8.39,0,0,1,.58-2.87c3.3-12.92,9.11-39.84,33.59-58.29-30-37.11-99.2-68.62-157.06-68.62-59.66,0-119.7,19-154.48,59.72-.79-1.15-1.44-2.26-2.3-3.73-2.62-4.6-5.1-11.38-6.89-19.53C68.71,54,82.75,42.14,82.75,27.57c0-8.87-3.56-16.55-9.19-21.25A28.46,28.46,0,0,0,54.89,0Zm0,18.38c3.31,0,5.57.89,6.89,2s2.59,2.44,2.59,7.18c0,.32-3.81,9-18.09,9.18,0-.68-.29-1-.29-1.72,0-9.37,2.51-12.88,4.31-14.64A7.14,7.14,0,0,1,54.89,18.38Zm321.88,174a9.77,9.77,0,0,1,0,19.53,9.77,9.77,0,0,1,0-19.53Zm-3.15,112.85a291.86,291.86,0,0,1-46.81,6.31c-.07,6,.07,11.81.29,17.23a223.59,223.59,0,0,0,12.06,28.72c4.63,9,10.95,10.05,15.22,10.05h9.47a12.6,12.6,0,0,0,9.48-4c4.2-4.78,3.66-11.74,3.44-13.5C376.74,349.7,374.26,326.44,373.62,305.23Zm-228.28,7.18c8.94,24.83,15,35.92,24.12,46.51a22.63,22.63,0,0,0,16.37,8.62h10a11.37,11.37,0,0,0,9.19-4.6c3.44-4.84,2.11-10.87,1.43-13.21-1.54-7.89-2.76-19.88-3.44-31A356,356,0,0,1,145.34,312.41Zm208.75,36.75c.11,0,.18,0,.29,0s.21,0,.29,0l-.29,9.19Z"/></g></g></svg>