<svg xmlns="http://www.w3.org/2000/svg" viewBox="0 0 458 405.15"><defs><style>.ece46718-8ac9-4598-9190-438eb0c3b395{fill:#e3f6db;}</style></defs><g id="a92ff2fc-edff-43e5-80d5-35ebfaed04d0" data-name="Capa 2"><g id="a147c5d7-b978-466a-9219-71d2507ae4a1" data-name="Capa 2"><path class="ece46718-8ac9-4598-9190-438eb0c3b395" d="M353.47,0C276.91,0,251.6,87.33,246.36,110.26c-5.67,1.9-17.15,4.88-33.88,4.88-11.81,0-20.64-2-31-4.3-12.09-2.73-26.09-6-46.23-6-42.85,0-67.48,26.27-67.48,72.07,0,17.19,16.52,60,21,71.21l-4.31,40.77a10.81,10.81,0,0,0,.29,3.45l23,95.9c3,10.52,11.48,16.94,22.11,16.94H151a9.18,9.18,0,0,0,9.19-11.48l-21-94.47A217.31,217.31,0,0,0,169.41,251c11.56,5.31,33,12.63,64.89,12.63a261.62,261.62,0,0,0,50.25-5.17l17.81,123.19c.39,12.52,10.26,22.68,22.39,22.68h15.8a9.42,9.42,0,0,0,9.47-9.48,9.58,9.58,0,0,0-.29-2.29c-.64-16.87-5-131.55-7.75-159.36,17.66-24.45,18.74-57.65,19.53-84.42.25-8.15.5-17.34,1.43-24.7,11.24,10.63,27.85,14.22,40.78,11.78,9.69-1.83,22.82,4.2,26.7,6.31a9.28,9.28,0,0,0,11.2-1.43l10.05-10.34c7.75-7.79,8.58-21.53,1.43-30.44L409.75,50,423,33.31a9.81,9.81,0,0,0,2-8,9.59,9.59,0,0,0-4.88-6.61C396.18,6.25,373.82,0,353.47,0ZM60.59,128.06C33.6,141,0,173.72,0,256.13A9.43,9.43,0,0,0,6.32,265l48.52,17.51a11.35,11.35,0,0,0,3.45.58,9.29,9.29,0,0,0,5.74-2.3,9.21,9.21,0,0,0,3.45-5.17l.28-2.29a11,11,0,0,0,0-1.15c-1.32-11.27-2.08-22.9-2.29-34.17-7.58-20.71-16.08-46.48-16.08-61.16C49.39,158,53.52,141.59,60.59,128.06Zm313.84,75.52c-2.73,11.81-6.82,23.33-13.5,34.17.43,5.46.68,12.49,1.15,20.39l17.8,6-7.75,45.94c-3,13.35,4.88,27,16.94,31L400,345.71a8.55,8.55,0,0,0,8-.28,9.42,9.42,0,0,0,4.88-6.32l18.38-76.95c4-16-3.23-32.27-16.94-38.48ZM178.31,274.22a231.91,231.91,0,0,1-19.24,29.57l17.52,78.1a28.93,28.93,0,0,0,16.94,6l15.79.87h.58c5.06.21,9.76-4.46,9.76-9.77a9.42,9.42,0,0,0-1.44-4.88L192.1,301.5,207,280A178.7,178.7,0,0,1,178.31,274.22Z"/></g></g></svg>