<svg xmlns="http://www.w3.org/2000/svg" viewBox="0 0 456.85 303.24"><defs><style>.a0875026-27ea-47e6-a042-693f66542708{fill:#e3f6db;}</style></defs><g id="e9cd3cdd-d332-4aec-a56e-a611431ce0eb" data-name="Capa 2"><g id="f0cbc15d-ddc4-45c8-adc1-3cc855f435e1" data-name="Capa 2"><path class="a0875026-27ea-47e6-a042-693f66542708" d="M397.18,0c-17,.52-55,6.72-85.72,48-28.43,38.18-37.9,54-66.33,54-19.11,0-47.38-16.91-85.28-7.36-12.21,3.07-21.43,7.25-28.38,12.72-13-5.54-46.36-15.6-76.34,12.1C21.39,150.66,0,147,0,147s47.74,20.25,73.51,0c22.64-17.8,39.46-24.27,46.78-26.47-5.79,10.56-7.84,24.17-7.84,41.65,0,30.34-23.92,39.42-33.76,45.65A18.65,18.65,0,0,0,72,215.36L41.26,286.53a9.58,9.58,0,0,0,5,13.14l7.09,2.85a9.43,9.43,0,0,0,11.32-3.44L112.45,229c56.86-9.54,85.3-47.72,85.3-47.72s47.39,38.18,132.67,9.55L377.8,229,412,298a9.46,9.46,0,0,0,11.48,4.79l10.25-3.44A9.59,9.59,0,0,0,439.25,286l-33-66.49-37.9-57.26s16.09-19.07,6.62-47.7,1.78-50.18,1.78-50.18,1.08,12.36,20,12.35c12,0,27.73,7.61,37.71,13.22a14.94,14.94,0,0,0,18-2.51,15.25,15.25,0,0,0,0-21.45l-8.31-8.36-37.9-38.17V.33A60.52,60.52,0,0,0,397.18,0Zm-196,204.6A163.08,163.08,0,0,1,147,238.56v.36l40.44,60.46a9.26,9.26,0,0,0,7.45,3.86H202a9.24,9.24,0,0,0,8-13.78l-26.18-50.54c16-10.66,25.82-21.32,31.15-28.39A129.09,129.09,0,0,1,201.14,204.64Zm125.41,6.71a217.34,217.34,0,0,1-37.67,7.45l-4,20.12-39.61,30.33c-3.86,2.39-6.33,4.68-6.33,8.72v6.71a9.14,9.14,0,0,0,12.78,8.46l54.84-32.81a17.73,17.73,0,0,0,8.45-9.1l12.6-39Z"/></g></g></svg>