<svg xmlns="http://www.w3.org/2000/svg" viewBox="0 0 1050 1050"><defs><style>.cls-1{fill:#194c3a;}</style></defs><title>icono 2</title><g id="Capa_2" data-name="Capa 2"><g id="Capa_3" data-name="Capa 3"><path class="cls-1" d="M525,0C235,0,0,235,0,525s235,525,525,525,525-235.06,525-525S814.94,0,525,0ZM273.05,678.22a93.85,93.85,0,0,1-27.55-66.5h57.73a94,94,0,0,1,94,94h-57.7A93.75,93.75,0,0,1,273.05,678.22Zm434.88,27.52h-57.7a94,94,0,0,1,94-94H802A94,94,0,0,1,707.93,705.74Zm196.42-202a117.11,117.11,0,0,1-11.8,10.33,115.82,115.82,0,0,1-70.36,23.69H704.54c-67,0-121.44,54.5-121.44,121.49A121.57,121.57,0,0,0,704.54,780.67V896.88A237.17,237.17,0,0,1,525,814.74a237.1,237.1,0,0,1-179.53,82.14V780.67A121.57,121.57,0,0,0,466.9,659.24c0-67-54.48-121.49-121.44-121.49H227.78a115.85,115.85,0,0,1-70.33-23.66,118.86,118.86,0,0,1-11.83-10.36,115.8,115.8,0,0,1-34-82.16v-39A116.13,116.13,0,0,1,227.78,266.4V421.57H345.46A237.1,237.1,0,0,1,525,503.71a237.17,237.17,0,0,1,179.55-82.14H822.19V266.4A116.16,116.16,0,0,1,938.37,382.57v39A115.74,115.74,0,0,1,904.35,503.73Z"/></g></g></svg>