<svg xmlns="http://www.w3.org/2000/svg" viewBox="0 0 1070 286.08"><defs><style>.cls-1{fill:#f6f6f6;}</style></defs><title>blanco catledan</title><g id="Capa_2" data-name="Capa 2"><g id="Capa_3" data-name="Capa 3"><path class="cls-1" d="M143,0a143,143,0,1,0,143,143A143,143,0,0,0,143,0ZM74.39,184.78a25.56,25.56,0,0,1-7.5-18.11H82.62a25.62,25.62,0,0,1,25.61,25.61H92.51A25.55,25.55,0,0,1,74.39,184.78Zm118.49,7.5H177.16a25.62,25.62,0,0,1,25.61-25.61H218.5A25.62,25.62,0,0,1,192.88,192.28Zm53.52-55a34.46,34.46,0,0,1-3.22,2.81A31.57,31.57,0,0,1,224,146.51H192a33.1,33.1,0,0,0,0,66.19v31.66A64.61,64.61,0,0,1,143,222a64.61,64.61,0,0,1-48.92,22.38V212.7a33.1,33.1,0,0,0,0-66.19H62.06a31.57,31.57,0,0,1-19.16-6.44,33.44,33.44,0,0,1-3.23-2.82,32,32,0,0,1-6.78-10.07,31.55,31.55,0,0,1-2.48-12.32V104.23A31.63,31.63,0,0,1,62.06,72.58v42.28H94.12A64.61,64.61,0,0,1,143,137.24,64.61,64.61,0,0,1,192,114.86h32V72.58a31.65,31.65,0,0,1,31.65,31.65v10.63A31.56,31.56,0,0,1,246.4,137.25Z"/><path class="cls-1" d="M402.59,143.27l40.7,2.37v17.18q0,13.44-12.13,21t-33.8,7.6a68,68,0,0,1-22.28-3.36,36.92,36.92,0,0,1-15.56-9.78,27.3,27.3,0,0,1-7-15.49q-.37-3.36-.63-8.91t-.24-12.13q0-6.6.24-12.08c.17-3.65.38-6.59.63-8.84a27.44,27.44,0,0,1,7-15.62,37.4,37.4,0,0,1,15.56-9.83A66.89,66.89,0,0,1,397.36,92q14.19,0,24.46,3.49t15.87,9.9a22.7,22.7,0,0,1,5.6,15.49v11.33l-40.7,4.36V126.47q0-3.36-3.36-3.36t-3.36,3.36v30.25q0,3.36,3.36,3.36t3.36-3.36Z"/><path class="cls-1" d="M542.63,189.83H502.3l-1.25-11.45H483.38l-1.25,11.45H441.8L466.45,94H518Zm-53.78-60.38-1.37,12H497l-1.37-12Z"/><path class="cls-1" d="M620.31,94v37h-24v58.88H554.83V131H530.68V94Z"/><path class="cls-1" d="M664.5,94v57.76h38.09v38.09h-77.3V94Z"/><path class="cls-1" d="M747,152.23v5.11h38.1v32.49H707.82V94h75.06v28H747v5.1h32.49v25.14Z"/><path class="cls-1" d="M789.85,94H828q14.56,0,24,2.42t15,6.91a27,27,0,0,1,8.15,10.83,47.87,47.87,0,0,1,3.3,14.26,167.22,167.22,0,0,1,.56,17q-.12,7-.62,13.57a39.59,39.59,0,0,1-2.8,12.2,24.4,24.4,0,0,1-7.65,9.83q-5.35,4.23-15.07,6.54t-25.14,2.3H789.85Zm47.06,61.49V128.58a8.58,8.58,0,0,0-.44-1.93c-.29-1-1.26-1.43-2.92-1.43s-2.64.48-2.93,1.43a8.36,8.36,0,0,0-.43,1.93v26.89a9.7,9.7,0,0,0,.43,1.87c.29,1,1.27,1.49,2.93,1.49s2.63-.5,2.92-1.49A10.08,10.08,0,0,0,836.91,155.47Z"/><path class="cls-1" d="M976.58,189.83H936.25L935,178.38H917.33l-1.25,11.45H875.75L900.4,94h51.53ZM922.8,129.45l-1.37,12h9.46l-1.37-12Z"/><path class="cls-1" d="M1016.17,189.83h-37V94h43.7l8.34,34.85h1.12l-.5-34.85h37v95.85h-40.33L1016.66,145h-1.12Z"/><path class="cls-1" d="M360.36,250.89a10.27,10.27,0,0,1-4.26-3.39,8.63,8.63,0,0,1-1.59-5h4.83a6.31,6.31,0,0,0,2,4.11,7.23,7.23,0,0,0,5.15,1.66,7.55,7.55,0,0,0,5.1-1.61,5.28,5.28,0,0,0,1.87-4.16,4.72,4.72,0,0,0-1.1-3.23,7,7,0,0,0-2.74-1.89,41.33,41.33,0,0,0-4.42-1.39,38.57,38.57,0,0,1-5.5-1.8,8.68,8.68,0,0,1-3.53-2.81,8.23,8.23,0,0,1-1.47-5.15,8.92,8.92,0,0,1,1.44-5,9.36,9.36,0,0,1,4.06-3.38,14.2,14.2,0,0,1,6-1.2,12.56,12.56,0,0,1,8,2.44,9,9,0,0,1,3.5,6.47h-5a5.37,5.37,0,0,0-2.09-3.51,7.44,7.44,0,0,0-4.88-1.52,7,7,0,0,0-4.62,1.47,5,5,0,0,0-1.79,4.1,4.44,4.44,0,0,0,1.07,3.09A6.78,6.78,0,0,0,363,231a46,46,0,0,0,4.41,1.42,42,42,0,0,1,5.52,1.87,9.21,9.21,0,0,1,3.58,2.83,8.22,8.22,0,0,1,1.49,5.2,9.07,9.07,0,0,1-1.34,4.78,9.91,9.91,0,0,1-4,3.63,13.12,13.12,0,0,1-6.22,1.39A14.82,14.82,0,0,1,360.36,250.89Z"/><path class="cls-1" d="M389.24,217.08v34.68h-4.53V217.08Z"/><path class="cls-1" d="M401.8,250.89a10.18,10.18,0,0,1-4.25-3.39,8.71,8.71,0,0,1-1.6-5h4.83a6.4,6.4,0,0,0,2,4.11,7.25,7.25,0,0,0,5.15,1.66,7.55,7.55,0,0,0,5.1-1.61,5.25,5.25,0,0,0,1.87-4.16,4.72,4.72,0,0,0-1.1-3.23,7,7,0,0,0-2.73-1.89,41.62,41.62,0,0,0-4.43-1.39,39,39,0,0,1-5.5-1.8,8.81,8.81,0,0,1-3.53-2.81,8.23,8.23,0,0,1-1.47-5.15,8.85,8.85,0,0,1,1.45-5,9.33,9.33,0,0,1,4-3.38,14.22,14.22,0,0,1,6-1.2,12.51,12.51,0,0,1,8,2.44,9,9,0,0,1,3.51,6.47h-5a5.33,5.33,0,0,0-2.09-3.51,7.41,7.41,0,0,0-4.87-1.52,7.06,7.06,0,0,0-4.63,1.47,5,5,0,0,0-1.79,4.1,4.48,4.48,0,0,0,1.07,3.09,6.74,6.74,0,0,0,2.64,1.81,44.75,44.75,0,0,0,4.4,1.42,41.5,41.5,0,0,1,5.52,1.87A9.21,9.21,0,0,1,418,237.1a8.22,8.22,0,0,1,1.5,5.2,9.08,9.08,0,0,1-1.35,4.78,9.85,9.85,0,0,1-4,3.63,13.12,13.12,0,0,1-6.22,1.39A14.89,14.89,0,0,1,401.8,250.89Z"/><path class="cls-1" d="M447.5,217.08v3.68H438v31h-4.52v-31H424v-3.68Z"/><path class="cls-1" d="M457.6,220.76v11.59h12.63v3.73H457.6V248h14.13v3.73H453.07V217h18.66v3.73Z"/><path class="cls-1" d="M513.77,217.33v34.43h-4.53V226.08L497.8,251.76h-3.19L483.12,226v25.73h-4.53V217.33h4.88l12.73,28.46,12.74-28.46Z"/><path class="cls-1" d="M541.93,244.05H526.8L524,251.76h-4.78l12.54-34.48H537l12.49,34.48h-4.78Zm-1.3-3.69-6.27-17.51-6.26,17.51Z"/><path class="cls-1" d="M572.77,217.08v34.68h-4.52V217.08Z"/><path class="cls-1" d="M607.75,251.76h-4.53L585,224.14v27.62h-4.52V217H585l18.21,27.56V217h4.53Z"/><path class="cls-1" d="M636.8,217.08v3.68h-9.45v31h-4.53v-31h-9.5v-3.68Z"/><path class="cls-1" d="M646.9,220.76v11.59h12.64v3.73H646.9V248H661v3.73H642.38V217H661v3.73Z"/><path class="cls-1" d="M694.17,227.13a10.8,10.8,0,0,0-4.18-4.7,12,12,0,0,0-6.37-1.67,12.94,12.94,0,0,0-6.54,1.67,11.77,11.77,0,0,0-4.58,4.77,16.36,16.36,0,0,0,0,14.36,11.84,11.84,0,0,0,4.58,4.75,12.94,12.94,0,0,0,6.54,1.67,11.86,11.86,0,0,0,8.36-3,12.49,12.49,0,0,0,3.83-8.21H682v-3.68h18.66v3.48a17.21,17.21,0,0,1-2.69,7.84,16.66,16.66,0,0,1-6,5.62,16.85,16.85,0,0,1-8.31,2.07,17.52,17.52,0,0,1-8.81-2.27,16.66,16.66,0,0,1-6.29-6.29,19.16,19.16,0,0,1,0-18.24,16.6,16.6,0,0,1,6.29-6.32,18.57,18.57,0,0,1,18.59.48,15.63,15.63,0,0,1,6.19,7.71Z"/><path class="cls-1" d="M724.87,251.76l-8.26-14.18h-5.47v14.18h-4.53V217.08H717.8a14.91,14.91,0,0,1,6.64,1.34,9.44,9.44,0,0,1,4.06,3.63,10.05,10.05,0,0,1-6.92,15.18l8.71,14.53ZM711.14,234h6.66q3.69,0,5.52-1.82a6.5,6.5,0,0,0,1.84-4.85,6.21,6.21,0,0,0-1.81-4.78q-1.82-1.69-5.55-1.69h-6.66Z"/><path class="cls-1" d="M757.35,244.05H742.23l-2.79,7.71h-4.77l12.54-34.48h5.22l12.49,34.48h-4.78Zm-1.29-3.69-6.27-17.51-6.27,17.51Z"/><path class="cls-1" d="M774.92,248.08h12.14v3.68H770.39V217.08h4.53Z"/><path class="cls-1" d="M831.44,227.13a10.87,10.87,0,0,0-4.18-4.7,12,12,0,0,0-6.37-1.67,12.94,12.94,0,0,0-6.54,1.67,11.77,11.77,0,0,0-4.58,4.77,16.27,16.27,0,0,0,0,14.36,11.84,11.84,0,0,0,4.58,4.75,12.94,12.94,0,0,0,6.54,1.67,11.86,11.86,0,0,0,8.36-3,12.54,12.54,0,0,0,3.83-8.21H819.25v-3.68H837.9v3.48a17.19,17.19,0,0,1-2.68,7.84,16.66,16.66,0,0,1-6,5.62,16.85,16.85,0,0,1-8.31,2.07,17.52,17.52,0,0,1-8.81-2.27,16.66,16.66,0,0,1-6.29-6.29,19.16,19.16,0,0,1,0-18.24,16.6,16.6,0,0,1,6.29-6.32,18.57,18.57,0,0,1,18.59.48,15.63,15.63,0,0,1,6.19,7.71Z"/><path class="cls-1" d="M864.37,244.05H849.25l-2.79,7.71h-4.77l12.53-34.48h5.23l12.49,34.48h-4.78Zm-1.29-3.69-6.27-17.51-6.27,17.51Z"/><path class="cls-1" d="M904.67,251.76h-4.52l-18.21-27.62v27.62h-4.53V217h4.53l18.21,27.56V217h4.52Z"/><path class="cls-1" d="M932.88,244.05H917.76L915,251.76H910.2l12.53-34.48H928l12.49,34.48h-4.78Zm-1.29-3.69-6.27-17.51-6.27,17.51Z"/><path class="cls-1" d="M966.54,219.19a14.9,14.9,0,0,1,6.37,6.05,20.42,20.42,0,0,1,0,18.48,14.55,14.55,0,0,1-6.37,6,21.79,21.79,0,0,1-9.83,2.07H945.92V217.08h10.79A21.4,21.4,0,0,1,966.54,219.19Zm.42,25.28q3.54-3.56,3.54-10t-3.56-10.1q-3.56-3.63-10.23-3.63h-6.26V248h6.26Q963.43,248,967,244.47Z"/><path class="cls-1" d="M985.62,220.76v11.59h12.64v3.73H985.62V248h14.13v3.73H981.09V217h18.66v3.73Z"/><path class="cls-1" d="M1024.88,251.76l-8.26-14.18h-5.48v14.18h-4.52V217.08h11.19a14.94,14.94,0,0,1,6.64,1.34,9.44,9.44,0,0,1,4.06,3.63,10.05,10.05,0,0,1-6.92,15.18l8.71,14.53ZM1011.14,234h6.67a7.56,7.56,0,0,0,5.52-1.82,6.5,6.5,0,0,0,1.84-4.85,6.21,6.21,0,0,0-1.81-4.78q-1.82-1.69-5.55-1.69h-6.67Z"/><path class="cls-1" d="M1043.78,249.84a16.53,16.53,0,0,1-6.29-6.32,19.12,19.12,0,0,1,0-18.26,16.6,16.6,0,0,1,6.29-6.32,18.38,18.38,0,0,1,17.66,0,16.36,16.36,0,0,1,6.27,6.3,19.45,19.45,0,0,1,0,18.31,16.4,16.4,0,0,1-6.27,6.29,18.38,18.38,0,0,1-17.66,0Zm15.35-3.36a11.91,11.91,0,0,0,4.58-4.82,16.79,16.79,0,0,0,0-14.56,12.06,12.06,0,0,0-4.56-4.8,13.6,13.6,0,0,0-13.13,0,12,12,0,0,0-4.55,4.8,16.7,16.7,0,0,0,0,14.56,11.82,11.82,0,0,0,4.57,4.82,13.52,13.52,0,0,0,13.09,0Z"/></g></g></svg>