<svg xmlns="http://www.w3.org/2000/svg" viewBox="0 0 1080 1080"><defs><style>.cls-1{fill:#194c3a;}.cls-2{fill:#fab527;}.cls-3{fill:#fffaf0;}</style></defs><title>con fondo catledan</title><g id="Capa_2" data-name="Capa 2"><g id="Capa_3" data-name="Capa 3"><rect class="cls-1" width="1080" height="1080"/><path class="cls-2" d="M173.68,406.32A133.68,133.68,0,1,0,307.36,540,133.68,133.68,0,0,0,173.68,406.32ZM109.53,579a23.88,23.88,0,0,1-7-16.93h14.7A23.94,23.94,0,0,1,141.15,586H126.46A23.87,23.87,0,0,1,109.53,579Zm110.73,7H205.57a23.94,23.94,0,0,1,23.94-23.94H244.2A23.94,23.94,0,0,1,220.26,586Zm50-51.44a27.79,27.79,0,0,1-3,2.63,29.46,29.46,0,0,1-17.91,6h-30a30.93,30.93,0,0,0,0,61.85v29.59a60.41,60.41,0,0,1-45.72-20.91A60.39,60.39,0,0,1,128,634.69V605.1a30.93,30.93,0,0,0,0-61.85H98a29.49,29.49,0,0,1-17.91-6,29,29,0,0,1-3-2.64,29.44,29.44,0,0,1-8.66-20.92v-9.93A29.57,29.57,0,0,1,98,474.15v39.51h30a60.36,60.36,0,0,1,45.71,20.92,60.38,60.38,0,0,1,45.72-20.92h30V474.15a29.58,29.58,0,0,1,29.58,29.58v9.93A29.48,29.48,0,0,1,270.28,534.58Z"/><path class="cls-3" d="M416.25,540.22l38,2.21v16.05q0,12.57-11.34,19.66t-31.59,7.1a63.64,63.64,0,0,1-20.82-3.14A34.47,34.47,0,0,1,376,573a25.59,25.59,0,0,1-6.52-14.49q-.35-3.13-.58-8.32c-.16-3.45-.23-7.23-.23-11.34s.07-7.87.23-11.28.35-6.17.58-8.26a25.64,25.64,0,0,1,6.52-14.6,35,35,0,0,1,14.54-9.2,62.55,62.55,0,0,1,20.82-3.19q13.27,0,22.87,3.25t14.83,9.25a21.28,21.28,0,0,1,5.23,14.49v10.58l-38,4.07v-9.42q0-3.13-3.14-3.14T410,524.51v28.27c0,2.1,1,3.14,3.14,3.14s3.14-1,3.14-3.14Z"/><path class="cls-3" d="M547.13,583.73H509.44L508.27,573H491.75l-1.16,10.71H452.9l23-89.58H524.1ZM496.87,527.3l-1.28,11.17h8.84l-1.27-11.17Z"/><path class="cls-3" d="M619.73,494.15V528.7H597.28v55H558.53v-55H536V494.15Z"/><path class="cls-3" d="M661,494.15v54h35.6v35.6H624.38V494.15Z"/><path class="cls-3" d="M738.16,548.59v4.77h35.6v30.37H701.51V494.15h70.16v26.17H738.16v4.77h30.37v23.5Z"/><path class="cls-3" d="M778.18,494.15h35.6q13.62,0,22.45,2.27t14,6.45A25.17,25.17,0,0,1,857.87,513,45.17,45.17,0,0,1,861,526.31q.63,7.4.52,15.89-.12,6.51-.58,12.68a37,37,0,0,1-2.62,11.4,22.71,22.71,0,0,1-7.15,9.19q-5,4-14.08,6.11t-23.5,2.15H778.18Zm44,57.47V526.49a7.93,7.93,0,0,0-.41-1.8c-.27-.89-1.18-1.34-2.73-1.34s-2.47.45-2.74,1.34a7.73,7.73,0,0,0-.4,1.8v25.13a9,9,0,0,0,.4,1.74c.27.93,1.18,1.4,2.74,1.4s2.46-.47,2.73-1.4A9.43,9.43,0,0,0,822.16,551.62Z"/><path class="cls-3" d="M952.69,583.73H915L913.83,573H897.31l-1.16,10.71H858.46l23-89.58h48.17ZM902.43,527.3l-1.28,11.17H910l-1.28-11.17Z"/><path class="cls-3" d="M989.69,583.73H955.13V494.15H996l7.79,32.57h1l-.46-32.57h34.55v89.58h-37.69l-11.06-41.88h-1Z"/><path class="cls-2" d="M376.78,640.79a9.53,9.53,0,0,1-4-3.16,8,8,0,0,1-1.49-4.67h4.51a5.9,5.9,0,0,0,1.88,3.83,6.76,6.76,0,0,0,4.81,1.56,7,7,0,0,0,4.77-1.51A4.91,4.91,0,0,0,389,633a4.44,4.44,0,0,0-1-3,6.49,6.49,0,0,0-2.56-1.76,36.84,36.84,0,0,0-4.14-1.3,36.31,36.31,0,0,1-5.13-1.68,8.19,8.19,0,0,1-3.3-2.63,7.66,7.66,0,0,1-1.38-4.81,8.3,8.3,0,0,1,1.35-4.69,8.79,8.79,0,0,1,3.79-3.17,13.42,13.42,0,0,1,5.6-1.11,11.75,11.75,0,0,1,7.47,2.28,8.45,8.45,0,0,1,3.28,6h-4.65a5,5,0,0,0-2-3.28,6.94,6.94,0,0,0-4.55-1.42,6.59,6.59,0,0,0-4.33,1.38,4.68,4.68,0,0,0-1.67,3.83,4.12,4.12,0,0,0,1,2.88,6.29,6.29,0,0,0,2.46,1.7c1,.39,2.35.83,4.12,1.33a39.19,39.19,0,0,1,5.16,1.74,8.72,8.72,0,0,1,3.35,2.65,7.69,7.69,0,0,1,1.39,4.86,8.57,8.57,0,0,1-1.25,4.46,9.26,9.26,0,0,1-3.72,3.4,12.28,12.28,0,0,1-5.82,1.3A13.87,13.87,0,0,1,376.78,640.79Z"/><path class="cls-2" d="M403.77,609.2v32.41h-4.23V609.2Z"/><path class="cls-2" d="M415.51,640.79a9.53,9.53,0,0,1-4-3.16,8.11,8.11,0,0,1-1.49-4.67h4.51a6,6,0,0,0,1.88,3.83,6.77,6.77,0,0,0,4.82,1.56,7,7,0,0,0,4.76-1.51,4.92,4.92,0,0,0,1.75-3.88,4.45,4.45,0,0,0-1-3,6.52,6.52,0,0,0-2.55-1.76,38.23,38.23,0,0,0-4.14-1.3,36.06,36.06,0,0,1-5.14-1.68,8.19,8.19,0,0,1-3.3-2.63,7.66,7.66,0,0,1-1.37-4.81,8.29,8.29,0,0,1,1.34-4.69,8.85,8.85,0,0,1,3.79-3.17,13.44,13.44,0,0,1,5.61-1.11,11.74,11.74,0,0,1,7.46,2.28,8.41,8.41,0,0,1,3.28,6h-4.65a5.07,5.07,0,0,0-1.95-3.28,7,7,0,0,0-4.56-1.42,6.59,6.59,0,0,0-4.33,1.38,4.68,4.68,0,0,0-1.67,3.83,4.12,4.12,0,0,0,1,2.88,6.36,6.36,0,0,0,2.46,1.7c1,.39,2.35.83,4.12,1.33a39.19,39.19,0,0,1,5.16,1.74,8.72,8.72,0,0,1,3.35,2.65,7.69,7.69,0,0,1,1.39,4.86,8.48,8.48,0,0,1-1.25,4.46,9.26,9.26,0,0,1-3.72,3.4,12.27,12.27,0,0,1-5.81,1.3A13.89,13.89,0,0,1,415.51,640.79Z"/><path class="cls-2" d="M458.22,609.2v3.44h-8.83v29h-4.23v-29h-8.89V609.2Z"/><path class="cls-2" d="M467.66,612.64v10.83h11.81V627H467.66v11.16h13.21v3.49H463.43V609.15h17.44v3.49Z"/><path class="cls-2" d="M520.16,609.43v32.18h-4.23v-24l-10.7,24h-3l-10.74-24v24h-4.23V609.43h4.56l11.9,26.6,11.91-26.6Z"/><path class="cls-2" d="M546.47,634.4H532.34l-2.61,7.21h-4.46L537,609.38h4.88l11.67,32.23h-4.46Zm-1.2-3.44-5.86-16.37L533.55,631Z"/><path class="cls-2" d="M575.3,609.2v32.41h-4.23V609.2Z"/><path class="cls-2" d="M608,641.61h-4.23l-17-25.81v25.81h-4.23V609.15h4.23l17,25.76V609.15H608Z"/><path class="cls-2" d="M635.14,609.2v3.44h-8.83v29h-4.23v-29H613.2V609.2Z"/><path class="cls-2" d="M644.58,612.64v10.83h11.81V627H644.58v11.16h13.21v3.49H640.35V609.15h17.44v3.49Z"/><path class="cls-2" d="M688.76,618.59a10.09,10.09,0,0,0-3.91-4.4,11.28,11.28,0,0,0-6-1.55,12.21,12.21,0,0,0-6.12,1.55,11,11,0,0,0-4.27,4.47,14,14,0,0,0-1.56,6.72,13.83,13.83,0,0,0,1.56,6.69,10.89,10.89,0,0,0,4.27,4.44,12.11,12.11,0,0,0,6.12,1.56,11.06,11.06,0,0,0,7.81-2.83,11.71,11.71,0,0,0,3.58-7.68H677.36v-3.44H694.8v3.26a16.09,16.09,0,0,1-2.51,7.32,15.42,15.42,0,0,1-5.63,5.25,15.7,15.7,0,0,1-7.76,1.93,16.35,16.35,0,0,1-8.23-2.11,15.52,15.52,0,0,1-5.88-5.88,17.81,17.81,0,0,1,0-17,15.46,15.46,0,0,1,5.88-5.91,16.35,16.35,0,0,1,8.23-2.12,16.59,16.59,0,0,1,9.14,2.56,14.6,14.6,0,0,1,5.78,7.21Z"/><path class="cls-2" d="M717.45,641.61l-7.72-13.26h-5.12v13.26h-4.23V609.2h10.46a13.86,13.86,0,0,1,6.21,1.25,8.76,8.76,0,0,1,3.79,3.4,9.41,9.41,0,0,1,1.26,4.88,9.56,9.56,0,0,1-1.93,5.9,9.44,9.44,0,0,1-5.79,3.4l8.13,13.58ZM704.61,625h6.23a7.05,7.05,0,0,0,5.16-1.7,6.06,6.06,0,0,0,1.72-4.53,5.83,5.83,0,0,0-1.69-4.47,7.41,7.41,0,0,0-5.19-1.58h-6.23Z"/><path class="cls-2" d="M747.81,634.4H733.67l-2.6,7.21h-4.46l11.71-32.23h4.89l11.67,32.23h-4.47ZM746.6,631l-5.86-16.37L734.88,631Z"/><path class="cls-2" d="M764.22,638.16h11.35v3.45H760V609.2h4.23Z"/><path class="cls-2" d="M817,618.59a10.13,10.13,0,0,0-3.9-4.4,11.3,11.3,0,0,0-5.95-1.55,12.18,12.18,0,0,0-6.12,1.55,11.05,11.05,0,0,0-4.28,4.47,14,14,0,0,0-1.55,6.72,13.83,13.83,0,0,0,1.55,6.69,11,11,0,0,0,4.28,4.44,12.09,12.09,0,0,0,6.12,1.56,11.06,11.06,0,0,0,7.81-2.83,11.76,11.76,0,0,0,3.58-7.68H805.65v-3.44h17.44v3.26a16.21,16.21,0,0,1-2.51,7.32A15.42,15.42,0,0,1,815,640a15.7,15.7,0,0,1-7.76,1.93,16.35,16.35,0,0,1-8.23-2.11,15.61,15.61,0,0,1-5.89-5.88,17.88,17.88,0,0,1,0-17,15.55,15.55,0,0,1,5.89-5.91,16.35,16.35,0,0,1,8.23-2.12,16.54,16.54,0,0,1,9.13,2.56,14.67,14.67,0,0,1,5.79,7.21Z"/><path class="cls-2" d="M847.83,634.4H833.69l-2.6,7.21h-4.47l11.72-32.23h4.88l11.67,32.23h-4.46ZM846.62,631l-5.86-16.37L834.9,631Z"/><path class="cls-2" d="M885.49,641.61h-4.23l-17-25.81v25.81H860V609.15h4.23l17,25.76V609.15h4.23Z"/><path class="cls-2" d="M911.85,634.4H897.72l-2.61,7.21h-4.46l11.72-32.23h4.88l11.67,32.23h-4.46ZM910.64,631l-5.86-16.37L898.93,631Z"/><path class="cls-2" d="M943.31,611.17a13.89,13.89,0,0,1,6,5.65,19.07,19.07,0,0,1,0,17.28,13.68,13.68,0,0,1-6,5.58,20.5,20.5,0,0,1-9.18,1.93H924V609.2h10.09A20,20,0,0,1,943.31,611.17Zm.39,23.62q3.31-3.31,3.31-9.32T943.68,616q-3.33-3.39-9.55-3.39h-5.86v25.48h5.86Q940.4,638.12,943.7,634.79Z"/><path class="cls-2" d="M961.14,612.64v10.83H973V627H961.14v11.16h13.21v3.49H956.91V609.15h17.44v3.49Z"/><path class="cls-2" d="M997.83,641.61l-7.72-13.26H985v13.26h-4.23V609.2h10.46a13.86,13.86,0,0,1,6.21,1.25,8.76,8.76,0,0,1,3.79,3.4,9.41,9.41,0,0,1,1.26,4.88,9.56,9.56,0,0,1-1.93,5.9,9.44,9.44,0,0,1-5.79,3.4l8.14,13.58ZM985,625h6.23a7.09,7.09,0,0,0,5.17-1.7,6.1,6.1,0,0,0,1.72-4.53,5.83,5.83,0,0,0-1.7-4.47,7.41,7.41,0,0,0-5.19-1.58H985Z"/><path class="cls-2" d="M1015.5,639.82a15.55,15.55,0,0,1-5.89-5.91,17.92,17.92,0,0,1,0-17.06,15.55,15.55,0,0,1,5.89-5.91,17.11,17.11,0,0,1,16.5,0,15.33,15.33,0,0,1,5.86,5.88,18.17,18.17,0,0,1,0,17.11,15.35,15.35,0,0,1-5.86,5.89,17.18,17.18,0,0,1-16.5,0Zm14.34-3.14a11.22,11.22,0,0,0,4.28-4.51,15.6,15.6,0,0,0,0-13.6,11.19,11.19,0,0,0-4.26-4.49,12.7,12.7,0,0,0-12.27,0,11.19,11.19,0,0,0-4.26,4.49,15.69,15.69,0,0,0,0,13.6,11.22,11.22,0,0,0,4.28,4.51,12.62,12.62,0,0,0,12.23,0Z"/></g></g></svg>